<?xml version="1.0" encoding="utf-8"?>
<!-- Generator: Adobe Illustrator 27.8.0, SVG Export Plug-In . SVG Version: 6.00 Build 0)  -->
<svg version="1.1" id="Layer_1" xmlns="http://www.w3.org/2000/svg" xmlns:xlink="http://www.w3.org/1999/xlink" x="0px" y="0px"
	 viewBox="0 0 301.3 368.7" style="enable-background:new 0 0 301.3 368.7;" xml:space="preserve">
<style type="text/css">
	.st0{fill:#004AE7;}
	.st1{fill:url(#SVGID_1_);}
</style>
<g>
	<path class="st0" d="M284.1,178c-40.6,13.8-76.1,46-95.3,86.5c-7.9,16.6-12.9,34.9-14.1,51.4l-0.6,8.9l60.2-15l60.1-15v-59.9
		c0-33-0.3-59.9-0.7-59.9C293.2,175,288.9,176.4,284.1,178z"/>
	<path class="st0" d="M293.7,7.1c-0.5,0-65.1,16.2-143.6,35.9S7.1,79,6.8,79.2c-0.2,0.3-0.3,21.8-0.2,47.9l0.3,47.5L78.1,157
		c39.2-9.7,70.9-17.2,70.4-16.6c-0.1,0.1-0.9,0.9-2.4,2.3L293.8,7.5C293.8,7.2,293.8,7.1,293.7,7.1z"/>
	<path class="st0" d="M146.1,142.7c-8.2,7.6-36.3,33.3-69.1,63.3L6.5,270.5v47.8c-0.1,39.5,0.1,47.7,1.2,47
		c0.8-0.4,65.6-59.7,144-131.6l142.7-130.9V54.9c0-24.1-0.3-44.2-0.6-47.4L146.1,142.7z"/>
	<linearGradient id="SVGID_1_" gradientUnits="userSpaceOnUse" x1="150.4729" y1="46.4287" x2="205.9674" y2="101.9233">
		<stop  offset="0.5027" style="stop-color:#000002;stop-opacity:0"/>
		<stop  offset="0.5652" style="stop-color:#00040F;stop-opacity:7.543419e-02"/>
		<stop  offset="0.6814" style="stop-color:#000F32;stop-opacity:0.2157"/>
		<stop  offset="0.8387" style="stop-color:#00216A;stop-opacity:0.4054"/>
		<stop  offset="1" style="stop-color:#0036AB;stop-opacity:0.6"/>
	</linearGradient>
	<path class="st1" d="M146.1,142.7L293.8,7.5c0-0.3-0.1-0.5-0.1-0.4c-0.3,0-31.4,7.8-76.6,19.1L78.4,156.9
		c39.1-9.7,70.7-17.1,70.2-16.5C148.4,140.5,147.6,141.3,146.1,142.7z"/>
</g>
</svg>
