<?xml version="1.0" encoding="utf-8"?>
<!-- Generator: Adobe Illustrator 27.8.0, SVG Export Plug-In . SVG Version: 6.00 Build 0)  -->
<svg version="1.1" id="Layer_1" xmlns="http://www.w3.org/2000/svg" xmlns:xlink="http://www.w3.org/1999/xlink" x="0px" y="0px"
	 viewBox="0 0 612 295.9" style="enable-background:new 0 0 612 295.9;" xml:space="preserve">
<style type="text/css">
	.st0{fill:#004AE7;}
</style>
<path class="st0" d="M54.1,61v7.3h22.5c12.4,0,22.5,0.2,22.5,0.5c0,0.4-10.5,13.4-23.3,29.1l-23.3,28.6v7.2v7.2H87h34.4v-7.3v-7.3
	l-23.7-0.2l-23.7-0.2l23.7-29l23.7-29v-7.1l0.1-7H87.7H54.1V61z"/>
<path class="st0" d="M148.4,79.2c-5.3,1.8-9,4.1-12.7,7.9c-11.5,11.8-11.6,33-0.3,45.1c10.4,11.1,32.5,12,44.1,1.8
	c2.7-2.3,7.5-10.6,7.5-12.8c0-0.8-1.8-1-8-1H171l-1.2,2.3c-3,5.7-14.4,7-20.5,2.2c-2.1-1.7-4.5-5.7-5.3-9.3l-0.5-2.1h22.2h22.2
	l-0.5-4.8c-1.1-11.1-4.4-19.1-9.5-23.6c-5-4.4-10.2-6.3-18.8-6.5C154.3,78.2,150.3,78.6,148.4,79.2z M165.5,92.7
	c2.4,1.5,5.4,6.6,5.5,9.3c0,1.3-1.1,1.4-13.4,1.4c-15,0-14.7,0.2-11.8-5.3c2.4-4.7,6.2-6.9,12.2-6.9
	C161.6,91.1,163.6,91.5,165.5,92.7z"/>
<path class="st0" d="M197.7,109.5v31.3h8.8h8.8v-19.1c0-21,0.3-22.6,4.4-26.1c4.9-4.1,12-3.2,15.7,1.9c1.5,2.1,1.6,3.4,1.8,22.8
	l0.2,20.5h8.8h8.7v-19.7c0-17.6,0.2-19.9,1.4-22.3c1.5-2.8,6.8-6.1,9.8-6.1c3.1,0,7,2.1,8.6,4.7c1.5,2.4,1.5,3.8,1.5,22.9v20.5h8.8
	h8.8v-22.4c0-24.4-0.4-27-4.3-32.8c-3.3-4.7-7.8-6.9-14.8-7.3c-9.2-0.5-15.8,2.3-19.8,8.6l-2.1,3.4l-2.4-3.7
	c-3.4-5.4-7.9-7.9-15.4-8.3c-7.6-0.5-12.5,1.1-16.7,5.2c-3.4,3.3-3.9,2.9-3.9-2.4v-3h-8.4h-8.4V109.5z"/>
<path class="st0" d="M321.3,79.8c-7.9,2.8-12.4,7.4-14.7,15c-0.7,2.3-1.2,4.3-1.2,4.4c0,0.2,3.5,0.2,7.9,0.2h7.8l1.1-2.5
	c1.8-3.7,5.6-5.9,10.5-5.9c7.3,0,11.7,4,11.7,10.4v3.1l-10.8,0.5c-11.8,0.4-17.3,1.8-22.8,5.5c-7.2,5-8.8,16.6-3.2,23.9
	c6.6,8.9,27.3,8.9,35.5,0l2.1-2.3v4.3v4.3h8h8v-21.2c0-23.7-0.5-26.6-4.8-32.4c-1.7-2.2-4.3-4.2-7.7-6c-5-2.5-5.7-2.7-13.7-2.9
	C327.5,78.2,325.5,78.4,321.3,79.8z M344.2,117.4c0,6.4-6.3,11.1-14.7,11.1c-3.9,0-4.7-0.3-6.7-2.2c-2.7-2.7-2.8-5.3-0.3-8.3
	c2.4-2.9,5.8-3.8,14.7-3.9l7-0.1V117.4z"/>
<path class="st0" d="M148.4,170.1c-0.2,0.5-0.3,18.3-0.2,39.5c0.2,35.1,0.4,38.8,1.6,41.5c3.2,7,7.9,9.2,18,8.6
	c8.9-0.7,9.5-0.9,8.9-3.8c-0.2-1.2-0.5-4.3-0.5-6.7v-4.4l-4.2,0.5c-2.8,0.3-4.6,0.2-5.3-0.5c-1-0.8-1.1-5.8-1.1-38.2V169h-8.4
	C150.8,169,148.7,169.2,148.4,170.1z"/>
<path class="st0" d="M251.9,214.1v45h8.4h8.4v-4.4v-4.4l2.6,2.8c5.2,5.7,14.7,7.9,23.6,5.6c12.1-3.3,19.2-13.6,20.2-29.1
	c0.7-11.5-2.5-20.8-9.2-26.8c-9.1-8.2-26.1-8.4-33.6-0.4c-1.3,1.3-2.5,2.4-2.9,2.4c-0.3,0-0.6-8.1-0.6-17.9V169h-8.4h-8.4
	L251.9,214.1L251.9,214.1z M289.8,212.6c8.6,4.2,10.6,19.8,3.6,28c-6.2,7.3-17.2,5.9-22.3-2.7c-1.8-3.1-2.1-4.4-2.1-9.8
	c0-5.5,0.2-6.6,2.3-9.8C275.5,211.5,282.9,209.2,289.8,212.6z"/>
<path class="st0" d="M392.3,207.6c0,26.3,0.3,39.8,0.8,42.1c1.9,7.6,7.9,10.8,18.6,10c8.9-0.6,8.8-0.5,8.8-6.6
	c0-8.2-0.1-8.2-5.6-8.2l-4.7,0.1l-0.4-37.8l-0.4-37.8l-8.6-0.2l-8.6-0.2V207.6z"/>
<path class="st0" d="M85.5,172.5c-18.9,4.1-30.8,18.9-31.9,40.1c-1.5,27.8,15.1,47.3,40.2,47.3c10.6,0,19.8-3.6,25.3-9.8l3-3.4v6.3
	v6.2h6.1h6.1v-22.9v-22.9l-18.9,0.2l-18.9,0.2l-0.2,6.6l-0.2,6.7h11.1h11.1l-0.5,1.7c-2.1,6.9-8.1,12.9-14.7,14.8
	c-6.3,1.8-15,1.1-19.5-1.5c-4.6-2.7-8.6-7.4-10.6-12.7c-1.4-3.5-1.7-5.9-1.7-13.4c0-7.9,0.2-9.8,1.8-13.7c3.6-9,11.5-14.9,20.8-15.6
	c10.1-0.7,18,3.6,21.4,11.7l1.8,4.2h8.3h8.4l-0.5-3.1c-0.8-4.8-3.4-11.2-6.1-14.7C118.9,174,101.9,168.9,85.5,172.5z"/>
<path class="st0" d="M200.6,197.6c-6.3,1.8-10.4,4.3-14.6,8.8c-5,5.4-7.4,11.2-7.9,19.3c-1.1,15,5.9,27,18.6,32
	c5.9,2.3,18.4,2.5,24.4,0.5c12.5-4.4,20.1-15.7,20.1-30.3c0-14-6.8-24.4-19-29.1C216.8,196.7,205.8,196,200.6,197.6z M217.4,213.2
	c1.5,1.1,3.4,3.5,4.4,6c1.6,3.5,1.8,5,1.6,10c-0.5,10.5-4.7,15.6-13.1,16c-6.3,0.3-9.8-1.8-12.8-7.4c-4.5-8.6-2-21,5.2-25.1
	C206.8,210.3,213.7,210.6,217.4,213.2z"/>
<path class="st0" d="M342.2,197.6c-9.4,2.6-15.1,7.8-17.3,15.5c-0.7,2.4-1.2,4.7-1.2,5c0,0.3,3.4,0.5,7.6,0.5h7.6l1.1-2.5
	c1.5-3.5,4.4-5.7,8.6-6.3c7.4-1.1,13.1,2.8,13.8,9.6l0.4,3.8h-7.2c-22.8,0-34.7,7.6-33.4,21.5c0.6,5.7,3.7,10.2,8.8,12.7
	c4,1.9,5.2,2.1,12.1,2.1c8.6-0.1,12.4-1.3,17.4-5.7l2.8-2.4v3.9v3.9h8.1h8l-0.2-22.4c-0.2-21.6-0.3-22.4-2.1-26.3
	c-2.4-5.2-7.8-10.2-13.2-11.9C358.4,196.7,347.3,196.2,342.2,197.6z M362.6,235.4c0,6.9-5.6,11.6-14,11.7c-7.4,0.1-11-3.3-9.2-8.5
	c1.5-4.2,6.6-6,18.1-6.2l5.1-0.1V235.4z"/>
</svg>
