<?xml version="1.0" encoding="utf-8"?>
<!-- Generator: Adobe Illustrator 27.8.0, SVG Export Plug-In . SVG Version: 6.00 Build 0)  -->
<svg version="1.1" id="Layer_1" xmlns="http://www.w3.org/2000/svg" xmlns:xlink="http://www.w3.org/1999/xlink" x="0px" y="0px"
	 viewBox="0 0 1054 556" style="enable-background:new 0 0 1054 556;" xml:space="preserve">
<style type="text/css">
	.st0{fill:#004AE7;}
	.st1{fill:url(#SVGID_1_);}
</style>
<path class="st0" d="M480,126.5v9.5h29.5c16.2,0,29.5,0.3,29.5,0.7c0,0.5-13.8,17.6-30.5,38.1L478,212.2v9.4v9.4h45h45v-9.5V212
	l-31.1-0.2l-31-0.3l31-38l31-38v-9.3l0.1-9.2h-44h-44V126.5z"/>
<path class="st0" d="M603.5,150.3c-6.9,2.3-11.8,5.4-16.7,10.4c-15.1,15.5-15.2,43.2-0.4,59.1c13.6,14.5,42.6,15.7,57.8,2.3
	c3.5-3,9.8-13.9,9.8-16.8c0-1-2.4-1.3-10.5-1.3h-10.4l-1.6,3c-3.9,7.5-18.9,9.2-26.9,2.9c-2.8-2.2-5.9-7.5-7-12.2L597,195h29.1h29.1
	l-0.6-6.3c-1.5-14.5-5.8-25-12.5-30.9c-6.6-5.8-13.4-8.2-24.6-8.5C611.2,149.1,606,149.5,603.5,150.3z M625.8,168
	c3.2,2,7.1,8.6,7.2,12.2c0,1.7-1.5,1.8-17.5,1.8c-19.6,0-19.2,0.2-15.5-7c3.2-6.2,8.1-9,16-9C620.8,166,623.4,166.5,625.8,168z"/>
<path class="st0" d="M668,190v41h11.5H691v-25c0-27.5,0.4-29.6,5.8-34.2c6.4-5.4,15.7-4.2,20.6,2.5c2,2.7,2.1,4.4,2.4,29.8l0.3,26.9
	h11.5H743v-25.8c0-23,0.2-26.1,1.8-29.2c2-3.7,8.9-8,12.9-8c4.1,0,9.2,2.8,11.3,6.2c1.9,3.1,2,5,2,30V231h11.5H794v-29.3
	c0-32-0.5-35.4-5.6-42.9c-4.3-6.1-10.2-9.1-19.4-9.6c-12.1-0.7-20.7,3-25.9,11.3l-2.8,4.5l-3.1-4.9c-4.4-7.1-10.3-10.3-20.2-10.9
	c-9.9-0.6-16.4,1.5-21.9,6.8c-4.4,4.3-5.1,3.8-5.1-3.1V149h-11h-11V190z"/>
<path class="st0" d="M829.9,151.2c-10.4,3.7-16.3,9.7-19.3,19.7c-0.9,3-1.6,5.6-1.6,5.8s4.6,0.3,10.3,0.3h10.2l1.5-3.3
	c2.3-4.9,7.3-7.7,13.7-7.7c9.5,0,15.3,5.2,15.3,13.6v4.1l-14.2,0.6c-15.4,0.5-22.7,2.3-29.9,7.2c-9.4,6.6-11.5,21.7-4.2,31.3
	c8.7,11.6,35.7,11.6,46.5,0l2.8-3v5.6v5.6h10.5H882v-27.8c0-31.1-0.6-34.8-6.3-42.4c-2.2-2.9-5.6-5.5-10.1-7.8
	c-6.5-3.3-7.5-3.5-18-3.8C838.1,149,835.5,149.3,829.9,151.2z M860,200.4c0,8.4-8.2,14.5-19.3,14.6c-5.1,0-6.2-0.4-8.8-2.9
	c-3.6-3.6-3.7-7-0.4-10.9c3.2-3.8,7.6-5,19.3-5.1l9.2-0.1V200.4z"/>
<path class="st0" d="M603.4,269.4c-0.3,0.7-0.4,24-0.2,51.7c0.3,46,0.5,50.8,2.1,54.4c4.2,9.2,10.3,12.1,23.6,11.2
	c11.6-0.9,12.4-1.2,11.7-5c-0.3-1.6-0.6-5.6-0.6-8.8v-5.8l-5.5,0.6c-3.7,0.4-6,0.2-7-0.7c-1.3-1.1-1.5-7.6-1.5-50.1V268h-11
	C606.6,268,603.8,268.3,603.4,269.4z"/>
<path class="st0" d="M739,327v59h11h11v-5.7v-5.7l3.4,3.7c6.8,7.5,19.3,10.4,30.9,7.3c15.8-4.3,25.1-17.8,26.4-38.1
	c0.9-15-3.3-27.2-12.1-35.1c-11.9-10.8-34.2-11-44-0.5c-1.7,1.7-3.3,3.1-3.8,3.1c-0.4,0-0.8-10.6-0.8-23.5V268h-11h-11V327z
	 M788.7,325.1c11.3,5.5,13.9,26,4.7,36.7c-8.1,9.5-22.5,7.7-29.2-3.6c-2.3-4.1-2.7-5.8-2.7-12.8c0-7.2,0.3-8.6,3-12.9
	C769.9,323.7,779.7,320.7,788.7,325.1z"/>
<path class="st0" d="M923,318.5c0,34.5,0.4,52.1,1.1,55.1c2.5,9.9,10.3,14.1,24.4,13.1c11.6-0.8,11.5-0.7,11.5-8.6
	c0-10.7-0.1-10.8-7.3-10.7l-6.2,0.1L946,318l-0.5-49.5l-11.2-0.3l-11.3-0.3V318.5z"/>
<path class="st0" d="M521.1,272.5c-24.8,5.4-40.3,24.8-41.8,52.5c-2,36.4,19.8,62,52.7,62c13.9,0,25.9-4.7,33.1-12.9l3.9-4.4v8.2
	v8.1h8h8v-30v-30l-24.7,0.2l-24.8,0.3l-0.3,8.7l-0.3,8.8h14.6h14.6l-0.7,2.2c-2.7,9.1-10.6,16.9-19.2,19.4
	c-8.2,2.4-19.6,1.5-25.5-1.9c-6-3.5-11.2-9.7-13.9-16.6c-1.8-4.6-2.2-7.7-2.2-17.6c0-10.3,0.3-12.8,2.3-17.9
	c4.7-11.8,15-19.5,27.2-20.4c13.2-0.9,23.6,4.7,28,15.3l2.3,5.5h10.9h11l-0.7-4c-1-6.3-4.5-14.7-8-19.3
	C564.8,274.5,542.6,267.9,521.1,272.5z"/>
<path class="st0" d="M671.8,305.4c-8.3,2.4-13.6,5.6-19.1,11.5c-6.5,7.1-9.7,14.7-10.4,25.3c-1.4,19.6,7.7,35.4,24.4,41.9
	c7.7,3,24.1,3.3,32,0.6C715.1,379,725,364.1,725,345c0-18.4-8.9-32-24.9-38.1C693,304.2,678.6,303.4,671.8,305.4z M693.9,325.9
	c2,1.4,4.4,4.6,5.8,7.8c2.1,4.6,2.4,6.5,2.1,13.1c-0.7,13.8-6.1,20.4-17.2,21c-8.3,0.4-12.9-2.3-16.8-9.7
	c-5.9-11.3-2.6-27.5,6.8-32.9C679.9,322.1,689,322.5,693.9,325.9z"/>
<path class="st0" d="M857.3,305.5c-12.3,3.4-19.8,10.2-22.7,20.3c-0.9,3.2-1.6,6.1-1.6,6.5s4.5,0.7,10,0.7h10l1.4-3.3
	c1.9-4.6,5.8-7.5,11.3-8.3c9.7-1.4,17.2,3.7,18.1,12.6l0.5,5h-9.4c-29.9,0-45.4,10-43.7,28.1c0.8,7.5,4.8,13.3,11.5,16.6
	c5.2,2.5,6.8,2.8,15.8,2.8c11.2-0.1,16.2-1.7,22.8-7.5l3.7-3.2v5.1v5.1h10.6h10.5l-0.3-29.3c-0.3-28.3-0.4-29.4-2.7-34.5
	c-3.1-6.8-10.2-13.3-17.3-15.6C878.6,304.2,864,303.6,857.3,305.5z M884,355c0,9.1-7.3,15.2-18.4,15.3c-9.7,0.1-14.4-4.3-12-11.1
	c2-5.5,8.7-7.8,23.7-8.1l6.7-0.1V355z"/>
<g>
	<path class="st0" d="M372.7,269c-40.6,13.8-76.1,46-95.3,86.5c-7.9,16.6-12.9,34.9-14.1,51.4l-0.6,8.9l60.2-15l60.1-15v-59.9
		c0-33-0.3-59.9-0.7-59.9C381.8,266,377.5,267.4,372.7,269z"/>
	<path class="st0" d="M382.3,98.1c-0.5,0-65.1,16.2-143.6,35.9s-143,36-143.3,36.2c-0.2,0.3-0.3,21.8-0.2,47.9l0.3,47.5l71.2-17.6
		c39.2-9.7,70.9-17.2,70.4-16.6c-0.1,0.1-0.9,0.9-2.4,2.3L382.4,98.5C382.4,98.3,382.3,98.1,382.3,98.1z"/>
	<path class="st0" d="M234.7,233.7c-8.2,7.6-36.3,33.3-69.1,63.3l-70.5,64.5v47.8c-0.1,39.5,0.1,47.7,1.2,47
		c0.8-0.4,65.6-59.7,144-131.6L383,193.8v-47.9c0-24.1-0.3-44.2-0.6-47.4L234.7,233.7z"/>
	<linearGradient id="SVGID_1_" gradientUnits="userSpaceOnUse" x1="239.0549" y1="137.4527" x2="294.5494" y2="192.9473">
		<stop  offset="0.5027" style="stop-color:#000002;stop-opacity:0"/>
		<stop  offset="0.5652" style="stop-color:#00040F;stop-opacity:7.543419e-02"/>
		<stop  offset="0.6814" style="stop-color:#000F32;stop-opacity:0.2157"/>
		<stop  offset="0.8387" style="stop-color:#00216A;stop-opacity:0.4054"/>
		<stop  offset="1" style="stop-color:#0036AB;stop-opacity:0.6"/>
	</linearGradient>
	<path class="st1" d="M234.7,233.7L382.4,98.5c0-0.3-0.1-0.5-0.1-0.4c-0.3,0-31.4,7.8-76.6,19.1L166.9,247.9
		c39.1-9.7,70.7-17.1,70.2-16.5C237,231.5,236.2,232.3,234.7,233.7z"/>
</g>
</svg>
